# xmcd CD database file
#
# Track frame offsets:
#	150
#	15903
#	30953
#	70490
#	103277
#	162887
#
# Disc length: 4440 seconds
#
# Revision: 0
# Processed by: cddbd v1.5PL3 Copyright (c) Steve Scherf et al.
# Submitted via: CDex 1.50beta10
#
DISCID=40115606
DTITLE=Armin Van Buuren Presents Perpetus Dreamer - The Sound of Goodbye
DYEAR=2003
DGENRE=Trance
TTITLE0=The Sound of Goodbye [armin's tribal feel (radio edit)]
TTITLE1=The Sound of Goodbye [above and beyond (radio edit)]
TTITLE2=The Sound of Goodbye [armin's tribal feel]
TTITLE3=The Sound of Goodbye [above and beyond remix]
TTITLE4=The Sound of Goodbye [armin van buuren's rising star mix]
TTITLE5=CCCD DATA TRACK
EXTD=YEAR: 2003
EXTT0=
EXTT1=
EXTT2=
EXTT3=
EXTT4=
EXTT5=
PLAYORDER=
